<svg width="171" height="222" viewBox="0 0 171 222" fill="none" xmlns="http://www.w3.org/2000/svg">
<g clip-path="url(#clip0)">
<path d="M98.0947 74.7481C94.8891 76.3525 92.0617 77.6903 89.3992 79.3432C83.2256 83.1773 79.3216 88.5722 77.8424 95.7218C77.3478 98.1259 77.76 100.322 79.3895 102.101C81.7125 104.636 82.2654 107.432 81.3924 110.69C80.8735 112.624 80.8977 114.645 81.2324 116.613C82.1199 121.862 85.9414 124.892 91.9841 125.256C94.8115 125.425 97.5758 124.907 100.34 124.465C102.527 124.116 104.656 124.305 106.756 124.902C110.486 125.968 111.814 128.358 110.806 132.109C109.433 137.199 105.651 139.69 100.932 141.057C98.3518 141.804 95.6699 142.158 92.9783 142.182C91.8289 142.191 91.4555 142.642 91.344 143.699C91.1839 145.206 90.8978 146.699 90.9802 148.231C91.0675 149.855 91.4701 151.333 92.6922 152.497C92.8183 152.618 92.9298 152.753 93.0365 152.894C93.9579 154.115 95.054 155.4 94.2877 156.995C93.5748 158.483 91.9744 158.342 90.568 158.347C88.5215 158.362 86.4603 158.211 84.4283 158.381C81.0384 158.667 78.5941 157.106 76.5233 154.697C72.4108 149.913 69.9908 144.237 68.0655 138.333C64.3361 126.884 62.1198 115.164 62.2895 103.089C62.3816 96.6136 63.4437 90.2832 66.8773 84.6169C70.8589 78.0393 76.9549 74.7723 84.4041 73.769C88.8415 73.1728 93.2353 73.5508 98.0947 74.7481Z" fill="white"/>
<path d="M122.911 174.75C118.512 176.728 114.123 178.725 109.71 180.673C108.216 181.332 106.655 181.87 105.03 182.084C104.138 182.2 103.027 182.394 102.678 181.172C102.358 180.067 103.008 179.287 103.885 178.686C104.385 178.347 104.972 178.298 105.534 178.148C115.428 175.54 124.521 171.245 132.038 164.261C139.152 157.649 144.783 149.763 149.71 141.401C150.457 140.136 150.806 138.823 150.413 137.233C149.88 135.076 151.577 133.176 153.827 133.127C157.193 133.055 160.205 134.397 163.216 135.648C165.423 136.564 167.518 137.727 169.342 139.303C171.049 140.776 171.417 142.211 170.564 144.286C167.227 152.405 162.125 159.365 156.49 166.015C147.275 176.888 135.36 183.93 122.799 190.086C117.78 192.549 112.717 194.948 107.333 196.533C104.603 197.338 103.944 196.795 103.963 194.008C103.968 193.373 104.07 192.728 104.191 192.103C104.608 189.951 104.928 187.852 103.357 185.942C102.576 184.992 103.439 184.599 104.176 184.328C106.582 183.451 109.026 182.67 111.417 181.74C115.757 180.048 120.054 178.24 123.575 175.05C123.73 174.842 123.779 174.537 124.104 174.493C123.682 174.493 123.274 174.517 122.911 174.75Z" fill="white"/>
<path d="M55.1168 88.015C54.3118 89.4691 53.4825 90.9088 52.6968 92.3726C49.079 99.1344 48.7104 105.983 51.8966 113.051C54.0014 117.718 56.1547 122.381 57.081 127.5C57.726 131.043 57.6193 134.591 57.595 138.149C57.5805 140.616 57.8569 143.025 58.6232 145.386C59.5931 148.377 61.5281 150.364 64.467 151.445C66.7464 152.284 67.6533 153.524 67.3478 155.197C66.9792 157.218 65.5388 158.318 63.1867 158.333C60.791 158.347 58.3855 158.212 55.9995 158.376C50.9025 158.725 47.2506 156.326 44.3942 152.453C39.8161 146.249 37.7356 139.041 36.2758 131.61C36.2176 131.324 36.1497 131.034 36.14 130.743C36.0479 128.503 35.335 127.136 32.8859 126.162C28.2156 124.296 26.591 117.718 29.0449 112.697C30.2767 110.176 32.2651 108.446 34.6609 107.113C35.1652 106.832 35.6841 106.633 35.9751 106.037C39.3796 99.0811 45.1071 94.3502 51.3438 90.1235C52.5223 89.3237 53.7347 88.5724 54.9277 87.7969C54.9907 87.8744 55.0538 87.9423 55.1168 88.015Z" fill="white"/>
<path d="M101.145 195.156C101.131 197.507 100.67 198.026 98.371 198.336C91.7318 199.228 85.0926 198.859 78.4437 198.438C64.1759 197.531 52.0226 191.065 40.0487 184.085C37.2747 182.471 34.6655 180.615 32.0758 178.724C31.2029 178.085 30.5724 177.265 30.0244 176.373C29.1854 175.011 28.2252 173.979 26.4162 174.115C25.1844 174.207 25.2183 173.417 25.6888 172.631C26.0331 172.045 26.4696 171.468 26.9885 171.032C28.39 169.854 29.4424 168.414 30.3639 166.854C30.9701 165.826 31.7121 164.924 33.0748 164.934C34.1224 165.051 34.8644 165.652 35.4706 166.461C35.6985 166.669 35.9265 166.873 36.1544 167.081C37.6772 167.721 38.8169 168.919 40.1214 169.873C42.3184 171.488 44.5492 173.053 46.848 174.517C46.8722 174.536 46.9013 174.551 46.9256 174.57C46.9644 174.599 47.008 174.624 47.0468 174.648C47.7015 175.079 48.395 175.419 48.9624 175.709C48.4144 175.385 47.7936 174.958 47.1098 174.595C47.0516 174.561 46.9935 174.532 46.9353 174.502C46.8383 174.449 46.7364 174.401 46.6346 174.352C43.6229 172.307 40.7083 170.13 37.9682 167.726C37.522 167.334 37.2601 166.825 36.9303 166.359C36.6927 166.117 36.4502 165.87 36.2077 165.627C35.9944 165.22 35.7228 164.847 35.7034 164.343C35.6791 163.606 35.7664 162.961 36.4502 162.506C37.0952 162.079 37.556 162.559 38.0506 162.801C38.4144 162.976 38.7393 163.238 39.0497 163.504C43.7102 168.162 49.3116 171.454 54.9663 174.706C60.6211 177.963 66.7656 179.156 73.1624 179.665C78.8656 180.12 84.5543 180.721 90.2866 180.673C91.3972 180.663 91.9743 181.366 92.4544 182.18C93.1334 183.344 93.5408 184.614 93.8754 185.922C94.0791 186.717 94.0936 187.663 95.0781 188.283C95.4758 186.262 94.5349 184.638 94.1227 182.941C93.6281 180.93 93.9918 179.825 95.5679 179.224C96.8385 178.744 98.1674 179.519 98.7493 181.444C100.098 185.913 101.174 190.45 101.145 195.156Z" fill="white"/>
<path d="M31.3048 162.089C29.1273 164.585 26.4551 166.456 23.5792 168.041C21.8819 168.977 19.9371 168.352 18.8605 166.369C16.8042 162.579 14.7771 158.774 12.4153 155.172C5.713 144.959 2.95352 133.51 1.48892 121.601C0.848759 116.39 0.271646 111.179 0.0291619 105.935C-0.019335 104.946 -0.0241846 103.933 0.140705 102.968C0.514131 100.782 2.03208 100.191 3.80222 101.451C4.73821 102.115 5.54326 103.007 6.75568 103.206C6.78963 103.22 6.81873 103.235 6.85267 103.249C7.07576 103.356 7.28915 103.497 7.52193 103.521C10.9604 103.933 10.9604 103.928 11.0428 107.413C11.0331 108.46 11.0234 109.512 11.0137 110.564C10.9022 113.54 11.4017 116.453 11.8963 119.376C12.1 114.684 11.7751 109.982 12.3328 105.31C12.6141 104.607 12.5802 103.477 13.7829 103.841C14.9565 104.2 15.8052 104.931 15.4997 106.4C14.8983 109.328 14.6558 112.304 14.8595 115.275C15.7082 127.577 18.7878 139.162 26.1932 149.288C27.5754 151.178 29.4522 152.608 31.0478 154.305C33.6569 157.077 33.749 159.278 31.3048 162.089Z" fill="white"/>
<path d="M40.4174 55.4514C30.107 62.9354 23.88 73.3326 19.4086 84.9609C18.3853 87.622 17.3087 90.2686 16.8431 93.1187C16.6443 94.345 16.5376 95.5084 16.8285 96.7298C17.2699 98.5766 16.8431 99.4685 15.0293 99.4976C10.4851 99.5654 5.92644 99.3425 1.63932 97.5539C0.19896 96.948 -0.130819 95.804 1.09615 94.854C3.55979 92.9587 3.77318 90.3122 4.36484 87.6414C6.17378 79.4594 9.88379 72.1256 14.4667 65.1409C18.5987 58.8299 23.623 53.2702 28.5357 47.6039C29.5299 46.4551 30.6938 45.4857 32.0711 44.7974C33.4824 44.0897 34.7724 44.269 35.9606 45.2918C37.9586 47.0222 38.2205 50.58 36.4698 52.5189C34.6851 54.5062 32.6046 56.2415 31.3049 58.6408C30.4901 60.5652 29.2728 62.2471 28.2011 63.7158C29.2777 62.4265 30.4901 60.9142 32.0469 59.7266C33.8752 57.938 35.4707 55.9167 37.5125 54.3414C38.1187 53.8761 38.7006 53.4205 39.4717 53.2702C40.1313 53.1442 40.82 53.086 41.1255 53.8179C41.4165 54.5208 40.9606 55.0539 40.4174 55.4514Z" fill="white"/>
<path d="M131.912 115.896C132.261 120.903 132.067 125.735 130.985 130.524C129.075 138.992 125.83 146.835 120.112 153.495C119.278 154.464 118.332 155.351 117.348 156.171C115.597 157.62 113.638 158.497 111.252 158.376C108.803 158.25 106.344 158.386 103.89 158.332C101.688 158.284 100.777 156.912 101.431 154.799C101.659 154.057 101.975 153.345 102.542 152.845C104.86 150.81 104.943 148.221 104.065 145.628C103.522 144.024 104.055 143.563 105.379 142.986C112.843 139.734 119.642 135.531 124.705 128.959C127.397 125.464 129.37 121.581 130.99 117.5C131.194 116.981 131.218 116.361 131.912 115.896Z" fill="white"/>
<path d="M43.4678 39.0487C44.9566 39.1893 46.2079 38.4865 47.4009 37.7933C55.6793 32.9946 64.4136 29.4417 73.8705 27.7355C78.3758 26.9211 82.8958 26.6303 87.4545 26.7515C87.6872 26.7563 87.9491 26.7321 88.1431 26.829C90.1557 27.8179 90.2042 29.8246 90.4225 31.6229C90.5971 33.0673 89.8696 34.124 88.3226 34.6184C86.8579 35.0886 85.3594 35.3503 83.8657 35.4279C75.3739 35.8593 67.5562 38.6173 59.9761 42.2188C56.7705 43.7408 53.5842 45.2919 50.5386 47.1241C49.3311 47.8512 48.3175 48.777 47.3136 49.7464C45.6889 51.3169 44.4426 51.1666 43.1865 49.2859C42.2651 47.9093 41.1205 46.7703 39.8014 45.7863C37.7985 44.2934 37.6967 43.3045 39.234 41.2881C40.3106 39.8728 41.5376 38.8112 43.4678 39.0487Z" fill="white"/>
<path d="M133.076 50.5995C133.653 51.2393 133.532 51.9615 133.017 52.4656C132.372 53.0957 131.674 52.5626 131.15 52.1602C128.148 49.8675 125.103 47.6427 121.902 45.6166C114.113 40.6822 105.864 37.3473 96.4169 37.9871C94.9329 38.0889 94.123 37.357 93.8029 35.9756C93.2161 33.4502 93.3034 30.8812 93.3519 28.3219C93.3761 27.1877 93.8902 26.6884 95.1026 26.7272C98.4489 26.8387 101.689 27.59 104.923 28.3122C117.009 31.0121 127.125 37.6818 137.183 44.4387C138.924 45.6069 139.177 46.9883 138.182 48.3988C136.723 50.4686 135.19 50.9582 133.396 49.9257C132.275 49.4846 131.233 48.8933 130.19 48.234C131.175 49.029 132.518 49.3392 133.076 50.5995Z" fill="white"/>
<path d="M49.7627 222C54.656 213.013 75.9607 202.737 88.4535 204.381C76.7658 213.212 63.7686 218.195 49.7627 222Z" fill="white"/>
<path d="M109.981 63.5707C116.582 63.5464 120.83 69.363 119.007 75.8825C118.735 76.8568 118.333 76.5417 117.76 76.2121C115.268 74.7725 112.634 73.774 109.763 73.3183C106.805 72.8481 103.958 73.1099 101.14 74.0018C100.355 74.249 99.9377 74.2781 100.073 73.2359C100.786 67.8023 103.847 63.4301 109.981 63.5707Z" fill="white"/>
<path d="M48.4872 68.626C43.4532 78.4851 29.5831 90.54 21.8042 91.8972C25.0098 84.4277 38.6569 69.7651 48.4872 68.626Z" fill="white"/>
<path d="M107.382 101.33C105.146 99.6092 103.041 100.23 101.887 102.833C101.039 104.757 100.457 106.783 100.204 108.867C99.9474 111.01 99.8019 113.167 100.709 115.236C101.659 117.398 103.929 118.886 106.402 118.862C108.871 118.838 110.35 117.408 111.301 115.295C111.984 113.782 112.222 112.178 112.266 110.069C112.203 106.633 110.374 103.627 107.382 101.33ZM106.388 109.885C105.985 110.399 105.418 110.845 104.758 110.695C104.104 110.549 104.317 109.846 104.244 109.352C104.099 108.358 103.759 107.471 103.1 106.676C102.44 105.886 102.843 105.426 103.745 105.261C105.403 104.956 107.062 106.289 107.12 108.087C107.169 108.722 106.824 109.337 106.388 109.885Z" fill="white"/>
<path d="M47.7307 24.5751C46.3098 25.5251 45.7327 27.2749 44.1759 28.3074C43.6376 26.7611 44.1711 25.3021 44.4039 23.9062C45.1653 19.3353 46.7802 15.0504 49.0984 11.037C50.8733 7.959 53.337 5.53542 56.2856 3.57232C56.887 3.17001 57.401 2.63682 57.9539 2.1618C59.4379 2.00669 58.7395 3.02944 58.7638 3.65957C57.949 8.67638 56.2759 13.3587 53.3952 17.5758C52.0664 20.3677 50.0586 22.6023 47.7307 24.5751Z" fill="white"/>
<path d="M133.056 104.665C133.57 102.096 134.045 99.7255 133.619 97.2728C133.134 94.4566 132.115 91.907 130.282 89.7161C129.666 88.9745 129.627 88.674 130.68 88.3783C132.741 87.8015 134.831 87.5155 136.911 87.8887C142.169 88.8194 144.647 94.4372 141.936 99.1148C140.001 102.45 136.8 103.773 133.056 104.665Z" fill="white"/>
<path d="M97.3237 89.5075C94.603 86.1485 89.2781 85.2324 85.5923 87.4863C83.2984 88.8871 82.1781 91.3834 82.7989 93.7149C83.5894 96.6813 85.8881 98.6347 89.0841 98.6541C92.0181 98.3488 94.7776 96.6959 97.1491 94.3596C98.6622 92.8666 98.6622 91.1604 97.3237 89.5075ZM93.4633 94.4274C93.1239 94.9218 92.7504 94.9848 92.3722 94.4565C92.0278 93.9766 91.5865 93.647 91.0773 93.3368C90.5632 93.0217 89.3557 93.3077 89.6369 92.2656C89.8746 91.4222 90.7475 90.9714 91.6884 90.9084C92.6437 90.8163 93.3324 91.3301 93.667 92.0862C93.992 92.823 93.9726 93.6858 93.4633 94.4274Z" fill="white"/>
<path d="M97.9735 203.086C97.4255 205.35 96.3634 207.42 94.7679 209.286C90.7087 214.026 85.5486 217.211 80.0733 219.979C79.7339 220.153 79.3362 220.58 78.9773 220.216C78.5554 219.795 79.0307 219.324 79.2052 218.961C81.4264 214.405 85.0443 211.021 88.8173 207.808C91.2567 205.733 93.8658 203.867 96.8047 202.519C97.7504 202.088 97.9493 202.195 97.9735 203.086Z" fill="white"/>
<path d="M37.2263 35.1857C35.8393 27.6289 35.0682 20.4503 40.0779 13.8921C43.0023 19.2724 41.4891 31.1577 37.2263 35.1857Z" fill="white"/>
<path d="M38.9721 89.0666C38.9576 89.2024 38.9915 89.372 38.9285 89.4108C33.7684 92.9928 28.7248 96.8027 22.362 98.0872C21.1738 98.3247 19.2679 98.7804 18.9575 97.9612C18.5113 96.7785 20.2039 95.9787 21.1738 95.2274C26.038 91.466 31.426 89.0279 37.6773 88.8388C38.1186 88.8291 38.6133 88.6449 38.9721 89.0666Z" fill="white"/>
<path d="M89.3169 114.534C87.896 114.66 86.2568 114.063 85.5245 112.076C84.6709 109.769 84.8455 107.481 86.2665 105.421C86.8145 104.626 87.7747 104.771 88.5216 105.096C91.475 106.366 93.5847 108.557 94.9814 111.422C95.51 112.512 95.1075 113.293 93.9775 113.782C92.6632 114.349 91.2956 114.495 89.3169 114.534Z" fill="white"/>
<path d="M83.1917 202.354C80.6117 203.154 77.9831 203.552 75.3789 204.012C71.3051 204.729 67.2071 205.311 63.051 205.108C62.5854 205.083 61.8482 205.311 61.6979 204.676C61.5718 204.138 62.1974 203.828 62.5854 203.498C65.1072 201.366 68.2207 200.924 71.3197 200.532C74.9472 200.071 78.5166 200.527 82.0326 201.487C82.474 201.608 82.9007 201.787 83.1917 202.354Z" fill="white"/>
<path d="M54.5396 18.3658C54.9907 18.1137 55.4368 17.8665 55.8879 17.6145C56.6202 17.3236 57.4252 16.8826 57.2797 18.3222C55.8248 20.7457 54.3311 23.1499 52.9247 25.5978C51.688 27.7499 49.4329 28.0892 47.4058 28.8308C46.625 29.1168 46.6977 28.443 46.8238 28.0213C47.1099 27.0374 47.5658 26.1261 48.1478 25.2778C49.5542 22.3065 51.3825 19.7181 54.5396 18.3658Z" fill="white"/>
<path d="M32.5997 72.0869C30.4804 77.3897 25.9314 84.0449 23.6618 85.2179C22.7937 80.0653 27.1535 73.2551 32.5997 72.0869Z" fill="white"/>
<path d="M47.11 174.595C47.0906 174.614 47.0712 174.629 47.0469 174.648C46.9839 174.692 46.8821 174.735 46.7366 174.774C42.915 172.612 39.3408 170.111 36.1545 167.082C37.6773 167.721 38.817 168.919 40.1216 169.874C42.3185 171.488 44.5494 173.053 46.8481 174.517C46.8724 174.537 46.9015 174.551 46.9257 174.57C46.9354 174.551 46.9354 174.527 46.9354 174.503C46.8384 174.449 46.7366 174.401 46.6347 174.352C43.6231 172.307 40.7084 170.13 37.9683 167.726C37.5222 167.334 37.2603 166.825 36.9305 166.359C40.2089 168.924 43.4873 171.483 46.7705 174.047C46.9887 174.236 47.2652 174.42 47.11 174.595Z" fill="white"/>
<path d="M32.0468 59.7269C30.8004 61.7627 28.9139 63.2314 27.3378 64.9909C28.4677 62.7467 29.5929 60.5121 31.3048 58.6411C30.4901 60.5654 29.2728 62.2474 28.201 63.7161C29.2776 62.4267 30.4901 60.9144 32.0468 59.7269Z" fill="white"/>
<path d="M54.5397 18.3658C51.8045 20.1108 49.9082 22.6362 48.1429 25.2779C48.1235 24.9774 48.0071 24.7302 47.7307 24.5799C49.6172 22.2484 51.5086 19.9169 53.3951 17.5854C53.2788 18.5743 53.9383 18.424 54.5397 18.3658Z" fill="white"/>
<path d="M133.075 50.5993C131.747 49.6783 130.418 48.7525 129.094 47.8315C130.665 48.2969 132.261 48.6701 133.4 49.9255C133.289 50.1485 133.182 50.3763 133.075 50.5993Z" fill="white"/>
<path d="M11.0427 107.413L6.75562 103.206C6.78956 103.22 6.81866 103.235 6.85261 103.249C7.07569 103.356 7.28908 103.496 7.52187 103.521C10.9603 103.933 10.9603 103.928 11.0427 107.413Z" fill="white"/>
<path d="M39.0498 163.505C38.9383 163.485 38.8171 163.49 38.7152 163.446C37.9247 163.131 37.2312 162.036 36.2855 162.894C35.4126 163.689 36.0042 164.702 36.2128 165.628C35.0489 164.615 35.1167 163.335 36.14 162.516C37.2894 161.595 38.366 162.307 39.0498 163.505Z" fill="white"/>
<path d="M58.7636 3.66445C58.5987 3.10703 58.9431 2.27817 57.9537 2.16668C58.3611 1.57048 58.7733 0.969432 59.4329 0C59.3698 1.52201 59.2874 2.62231 58.7636 3.66445Z" fill="white"/>
<path d="M57.2748 18.3174C57.3039 17.1104 56.3243 17.886 55.8829 17.6097C56.3291 16.4997 57.1439 16.776 57.7452 17.2946C58.2253 17.7163 58.0022 18.235 57.2748 18.3174Z" fill="white"/>
<path d="M35.4707 166.461C34.6705 165.952 33.8703 165.443 33.0701 164.934C34.3504 164.692 35.1215 165.245 35.4707 166.461Z" fill="white"/>
<path d="M122.911 174.75C123.425 174.241 124.045 173.974 124.977 173.901C124.56 174.522 124.239 174.977 123.57 175.05C123.352 174.953 123.129 174.851 122.911 174.75Z" fill="white"/>
<path d="M46.9257 174.571C46.9354 174.551 46.9354 174.527 46.9354 174.503C46.9306 174.358 46.7899 174.198 46.7705 174.047C48.303 174.605 49.5203 175.652 50.7667 176.679C49.2536 176.403 47.9005 175.802 46.7366 174.774C46.853 174.711 46.9112 174.644 46.9257 174.571Z" fill="white"/>
</g>
<defs>
<clipPath id="clip0">
<rect width="171" height="222" fill="white"/>
</clipPath>
</defs>
</svg>
