<svg width="32" height="32" fill="none" xmlns="http://www.w3.org/2000/svg"><g clip-path="url(#clip0)"><path d="M21.63 2.259c-.58-.27-.162-.404-.297 22.521l9.787 4.888c.484.243.88 0 .88-.55-.057-22.782.128-21.627-.155-21.753L21.631 2.26z" fill="#2FFC8D"/><path d="M10.667 19.453l10.49-17.05c.347-.54.49.034 10.612 4.931.46.248.348-.309-10.436 17.446l-10.666-5.327z" fill="#03E370"/><path d="M.693 3.25l9.974 16.204 10.666 5.338C9.983 6.398 10.777 7.52 10.545 7.388 3.917 4.303-.565 1.2.693 3.25z" fill="#10C767"/><path d="M10.667 29.13c0 .54-.396.791-.88.55L.595 25.078C.264 24.913 0 24.484 0 24.12.25 3.33-.55 1.84.595 2.412l9.94 4.976c.254.145.073-1.143.132 21.741z" fill="#00AB6C"/></g><defs><clipPath id="clip0"><path fill="#fff" d="M0 0h32v32H0z"/></clipPath></defs></svg>