<svg width="33" height="32" fill="none" xmlns="http://www.w3.org/2000/svg"><rect x=".5" width="32" height="32" rx="4" fill="#FC0000"/><g clip-path="url(#clip0)"><path d="M11.273 9h11.45c1.564 0 2.844 1.355 2.844 2.937v6.851c0 1.657-1.28 2.937-2.774 2.937h-11.52C9.78 21.8 8.5 20.445 8.5 18.863v-6.926C8.5 10.354 9.78 9 11.273 9zm4.196 9.713l4.835-3.313c.072-.075.143-.15.143-.301 0-.15-.071-.226-.143-.301L15.47 11.56c-.142-.075-.213-.075-.356 0-.142 0-.213.15-.213.301v6.55c0 .151.071.302.213.302.071.075.214.075.356 0z" fill="#fff"/></g><defs><clipPath id="clip0"><path fill="#fff" transform="translate(8.5 9)" d="M0 0h17.067v12.8H0z"/></clipPath></defs></svg>