<svg width="32" height="32" fill="none" xmlns="http://www.w3.org/2000/svg"><g clip-path="url(#clip0)"><path d="M2 2.177C-.515 4.79 0 7.564 0 15.993c0 7-1.221 14.018 5.17 15.67 1.997.513 19.682.513 21.675-.003 2.662-.687 4.827-2.845 5.123-6.61.041-.525.041-17.58-.001-18.115-.315-4.01-2.783-6.32-6.035-6.788-.745-.108-.895-.14-4.719-.147C7.65.007 4.676-.597 2 2.177z" fill="url(#paint0_linear)"/><path d="M15.997 4.186c-4.841 0-9.438-.43-11.194 4.076-.726 1.861-.62 4.278-.62 7.74 0 3.037-.098 5.892.62 7.738 1.752 4.51 6.386 4.078 11.192 4.078 4.636 0 9.416.482 11.193-4.078.727-1.88.62-4.26.62-7.738 0-4.616.255-7.596-1.984-9.834-2.267-2.266-5.332-1.982-9.832-1.982h.005zm-1.058 2.13c10.098-.017 11.384-1.14 10.674 14.456-.252 5.516-4.452 4.911-9.614 4.911-9.414 0-9.684-.27-9.684-9.687 0-9.526.746-9.676 8.624-9.684v.003zm7.365 1.96a1.417 1.417 0 100 2.835 1.417 1.417 0 000-2.835zm-6.307 1.658a6.068 6.068 0 000 12.134 6.065 6.065 0 006.066-6.066 6.067 6.067 0 00-6.066-6.068zm0 2.13c5.207 0 5.214 7.876 0 7.876-5.205 0-5.213-7.877 0-7.877z" fill="#fff"/></g><defs><linearGradient id="paint0_linear" x1="2.061" y1="29.956" x2="31.802" y2="4.216" gradientUnits="userSpaceOnUse"><stop stop-color="#FD5"/><stop offset=".5" stop-color="#FF543E"/><stop offset="1" stop-color="#C837AB"/></linearGradient><clipPath id="clip0"><path fill="#fff" d="M0 0h32v32H0z"/></clipPath></defs></svg>