<svg width="33" height="32" fill="none" xmlns="http://www.w3.org/2000/svg"><g clip-path="url(#clip0)"><path d="M16.5 32c8.837 0 16-7.163 16-16s-7.163-16-16-16S.5 7.163.5 16s7.163 16 16 16z" fill="#039BE5"/><path d="M7.821 15.653l15.427-5.948c.716-.259 1.341.175 1.11 1.258v-.002l-2.626 12.375c-.195.877-.716 1.09-1.445.677l-4-2.948-1.93 1.859c-.213.213-.393.393-.806.393l.284-4.07 7.413-6.698c.323-.284-.072-.444-.497-.161l-9.162 5.768-3.949-1.232c-.857-.272-.876-.857.181-1.27z" fill="#fff"/></g><defs><clipPath id="clip0"><path fill="#fff" transform="translate(.5)" d="M0 0h32v32H0z"/></clipPath></defs></svg>