<svg width="20" height="20" fill="none" xmlns="http://www.w3.org/2000/svg"><path fill-rule="evenodd" clip-rule="evenodd" d="M13.333 3.333H6.667a3.333 3.333 0 00-3.334 3.333v6.667a3.333 3.333 0 003.334 3.333h6.666a3.333 3.333 0 003.334-3.333V6.666a3.333 3.333 0 00-3.334-3.333zM6.667 1.666a5 5 0 00-5 5v6.667a5 5 0 005 5h6.666a5 5 0 005-5V6.666a5 5 0 00-5-5H6.667z" fill="#777E91"/><path d="M14.167 6.667a.833.833 0 100-1.667.833.833 0 000 1.667z" fill="#777E91"/><path fill-rule="evenodd" clip-rule="evenodd" d="M14.167 10a4.167 4.167 0 11-8.334 0 4.167 4.167 0 018.334 0zM12.5 10a2.5 2.5 0 11-5 0 2.5 2.5 0 015 0z" fill="#777E91"/></svg>