<svg width="20" height="20" fill="none" xmlns="http://www.w3.org/2000/svg"><path fill-rule="evenodd" clip-rule="evenodd" d="M2.65 11.666C1.274 11.67.384 13.24 1.233 14.43c1.216 1.703 3.42 3.07 7.101 3.07 5.705 0 10.283-4.649 9.643-10.14l.939-1.879c.65-1.302-.48-2.784-1.909-2.499l-1.24.249a6.21 6.21 0 00-.96-.4c-.568-.185-1.254-.331-1.89-.331-1.14 0-2.125.293-2.908.88-.774.58-1.21 1.344-1.449 2.044-.11.323-.183.647-.23.958a8.421 8.421 0 01-1.336-.556C5.99 5.306 5.179 4.65 4.722 4.071c-.768-.968-2.394-.896-2.964.363-.805 1.774-.584 3.877.139 5.577.242.57.557 1.132.942 1.654l-.188.002zm5.683 4.167c-3.22 0-4.884-1.166-5.745-2.372a.081.081 0 01.067-.128c.876-.002 2.673-.044 3.859-.738.061-.036.048-.126-.02-.149-2.763-.929-4.334-4.864-3.219-7.324a.082.082 0 01.14-.016C4.69 6.714 7.475 8.29 9.9 8.332a.085.085 0 00.084-.098c-.098-.634-.47-4.067 2.934-4.067.813 0 2.022.396 2.468.802a.08.08 0 00.075.022l1.873-.374a.083.083 0 01.09.119l-1.16 2.322a.085.085 0 00-.008.053c.813 4.572-2.932 8.722-7.922 8.722z" fill="#777E91"/></svg>