<svg width="32" height="32" fill="none" xmlns="http://www.w3.org/2000/svg"><rect width="32" height="32" rx="4" fill="#FF6C6C"/><g clip-path="url(#clip0)" fill="#fff"><path d="M19.492 14.482H13.27c-.178 0-.444.168-.444.42v1.681c0 .253.178.42.444.42h3.823c-.356 1.85-2.045 3.11-4 2.942a4.72 4.72 0 01-4.445-3.194c-.622-1.848.267-3.865 1.956-4.958 1.689-1.092 4-.924 5.51.336a.447.447 0 00.623 0l1.333-1.176c.09 0 .178-.084.178-.252 0-.168-.089-.253-.178-.337-2.4-2.1-6.044-2.437-8.8-.756-2.755 1.597-4.089 4.79-3.2 7.816.89 3.025 3.734 5.042 7.022 5.042 5.156 0 6.934-3.53 6.934-6.891v-.672c0-.253-.267-.42-.534-.42zm7.2.001H25.36v-1.261c0-.252-.178-.42-.445-.42h-1.777c-.267 0-.445.168-.445.42v1.26H21.36c-.267 0-.445.169-.445.42v1.682c0 .252.178.42.445.42h1.333v1.26c0 .253.178.42.445.42h1.777c.267 0 .445-.168.445-.42v-1.26h1.333c.267 0 .445-.168.445-.42v-1.681c0-.252-.178-.42-.445-.42z"/></g><defs><clipPath id="clip0"><path fill="#fff" transform="translate(5.803 8.6)" d="M0 0h21.333v13.867H0z"/></clipPath></defs></svg>