<svg width="171" height="222" fill="none" xmlns="http://www.w3.org/2000/svg"><g clip-path="url(#clip0)" fill="#fff"><path d="M98.095 74.748c-3.206 1.605-6.033 2.942-8.696 4.595-6.173 3.834-10.077 9.23-11.557 16.379-.494 2.404-.082 4.6 1.547 6.379 2.324 2.535 2.876 5.331 2.003 8.589-.518 1.934-.494 3.955-.16 5.923.888 5.249 4.71 8.279 10.752 8.643 2.828.169 5.592-.349 8.356-.791 2.187-.349 4.316-.16 6.416.437 3.73 1.066 5.058 3.456 4.05 7.207-1.373 5.09-5.155 7.581-9.874 8.948-2.58.747-5.262 1.101-7.954 1.125-1.15.009-1.522.46-1.634 1.517-.16 1.507-.446 3-.364 4.532.087 1.624.49 3.102 1.712 4.266.126.121.238.256.345.397.92 1.221 2.017 2.506 1.25 4.101-.712 1.488-2.313 1.347-3.719 1.352-2.046.015-4.108-.136-6.14.034-3.39.286-5.834-1.275-7.905-3.684-4.112-4.784-6.532-10.46-8.457-16.364-3.73-11.449-5.946-23.169-5.777-35.244.093-6.475 1.155-12.806 4.588-18.472 3.982-6.578 10.078-9.845 17.527-10.848 4.438-.596 8.831-.218 13.69.98zm24.816 100.002c-4.399 1.978-8.788 3.975-13.201 5.923-1.494.659-3.055 1.197-4.68 1.411-.892.116-2.003.31-2.352-.912-.32-1.105.33-1.885 1.207-2.486.5-.339 1.087-.388 1.649-.538 9.894-2.608 18.987-6.903 26.504-13.887 7.114-6.612 12.745-14.498 17.672-22.86.747-1.265 1.096-2.578.703-4.168-.533-2.157 1.164-4.057 3.414-4.106 3.366-.072 6.378 1.27 9.389 2.521 2.207.916 4.302 2.079 6.126 3.655 1.707 1.473 2.075 2.908 1.222 4.983-3.337 8.119-8.439 15.079-14.074 21.729-9.215 10.873-21.13 17.915-33.691 24.071-5.019 2.463-10.082 4.862-15.466 6.447-2.73.805-3.389.262-3.37-2.525.005-.635.107-1.28.228-1.905.417-2.152.737-4.251-.834-6.161-.781-.95.082-1.343.819-1.614 2.406-.877 4.85-1.658 7.241-2.588 4.34-1.692 8.637-3.5 12.158-6.69.155-.208.204-.513.529-.557-.422 0-.83.024-1.193.257zM55.117 88.015c-.805 1.454-1.634 2.894-2.42 4.358-3.618 6.761-3.987 13.61-.8 20.678 2.104 4.667 4.258 9.33 5.184 14.449.645 3.543.538 7.091.514 10.649-.014 2.467.262 4.876 1.028 7.237.97 2.991 2.905 4.978 5.844 6.059 2.28.839 3.186 2.079 2.88 3.752-.368 2.021-1.808 3.121-4.16 3.136-2.396.014-4.801-.121-7.188.043-5.096.349-8.748-2.05-11.605-5.923-4.578-6.204-6.658-13.412-8.118-20.843-.058-.286-.126-.576-.136-.867-.092-2.24-.805-3.607-3.254-4.581-4.67-1.866-6.295-8.444-3.841-13.465 1.232-2.521 3.22-4.251 5.616-5.584.504-.281 1.023-.48 1.314-1.076 3.405-6.956 9.132-11.687 15.369-15.913 1.178-.8 2.39-1.552 3.584-2.327.063.077.126.145.189.218zm46.028 107.141c-.014 2.351-.475 2.87-2.774 3.18-6.64.892-13.278.523-19.927.102-14.268-.907-26.421-7.373-38.395-14.353-2.774-1.614-5.383-3.47-7.973-5.361-.873-.639-1.504-1.459-2.052-2.351-.839-1.362-1.799-2.394-3.608-2.258-1.232.092-1.198-.698-.727-1.484.344-.586.78-1.163 1.3-1.599 1.401-1.178 2.453-2.618 3.375-4.178.606-1.028 1.348-1.93 2.71-1.92 1.048.117 1.79.718 2.397 1.527.228.208.456.412.683.62 1.523.64 2.663 1.838 3.967 2.792 2.197 1.615 4.428 3.18 6.727 4.644.024.019.053.034.078.053.038.029.082.054.12.078.656.431 1.349.771 1.916 1.061-.548-.324-1.168-.751-1.852-1.114-.058-.034-.117-.063-.175-.093-.097-.053-.199-.101-.3-.15-3.012-2.045-5.927-4.222-8.667-6.626-.446-.392-.708-.901-1.038-1.367-.237-.242-.48-.489-.722-.732-.214-.407-.485-.78-.505-1.284-.024-.737.063-1.382.747-1.837.645-.427 1.106.053 1.6.295.364.175.69.437 1 .703 4.66 4.658 10.262 7.95 15.916 11.202 5.655 3.257 11.8 4.45 18.196 4.959 5.704.455 11.392 1.056 17.125 1.008 1.11-.01 1.687.693 2.167 1.507.68 1.164 1.087 2.434 1.421 3.742.204.795.219 1.741 1.203 2.361.398-2.021-.543-3.645-.955-5.342-.495-2.011-.131-3.116 1.445-3.717 1.27-.48 2.6.295 3.181 2.22 1.349 4.469 2.425 9.006 2.396 13.712zm-69.84-33.067c-2.178 2.496-4.85 4.367-7.726 5.952-1.697.936-3.642.311-4.719-1.672-2.056-3.79-4.083-7.595-6.445-11.197-6.702-10.213-9.461-21.662-10.926-33.571-.64-5.211-1.217-10.422-1.46-15.666-.048-.989-.053-2.002.112-2.967.373-2.186 1.891-2.777 3.661-1.517.936.664 1.741 1.556 2.954 1.755l.097.043c.223.107.436.248.669.272 3.438.412 3.438.407 3.52 3.892l-.028 3.151c-.112 2.976.388 5.889.882 8.812.204-4.692-.12-9.394.437-14.066.281-.703.247-1.833 1.45-1.469 1.174.359 2.022 1.09 1.717 2.559-.602 2.928-.844 5.904-.64 8.875.848 12.302 3.928 23.887 11.333 34.013 1.382 1.89 3.26 3.32 4.855 5.017 2.609 2.772 2.701 4.973.257 7.784zm9.112-106.638c-10.31 7.484-16.537 17.882-21.008 29.51-1.024 2.661-2.1 5.308-2.566 8.158-.199 1.226-.305 2.39-.015 3.61.442 1.848.015 2.74-1.799 2.769-4.544.067-9.103-.156-13.39-1.944-1.44-.606-1.77-1.75-.543-2.7 2.464-1.895 2.677-4.542 3.269-7.213 1.809-8.182 5.519-15.515 10.102-22.5 4.132-6.311 9.156-11.87 14.069-17.537.994-1.149 2.158-2.118 3.535-2.807 1.411-.707 2.701-.528 3.89.495 1.998 1.73 2.26 5.288.509 7.227-1.785 1.987-3.865 3.723-5.165 6.122-.815 1.924-2.032 3.606-3.104 5.075 1.077-1.29 2.29-2.802 3.846-3.99 1.828-1.788 3.424-3.81 5.466-5.385.606-.465 1.188-.92 1.959-1.07.66-.127 1.348-.185 1.654.547.29.703-.165 1.236-.709 1.633zm91.495 60.445c.349 5.007.155 9.839-.927 14.628-1.91 8.468-5.155 16.311-10.873 22.971-.834.969-1.78 1.856-2.764 2.676-1.751 1.449-3.71 2.326-6.096 2.205-2.449-.126-4.908.01-7.362-.044-2.202-.048-3.113-1.42-2.459-3.533.228-.742.544-1.454 1.111-1.954 2.318-2.035 2.401-4.624 1.523-7.217-.543-1.604-.01-2.065 1.314-2.642 7.464-3.252 14.263-7.455 19.326-14.027 2.692-3.495 4.665-7.378 6.285-11.459.204-.519.228-1.139.922-1.604zM43.468 39.049c1.489.14 2.74-.563 3.933-1.256 8.278-4.798 17.013-8.351 26.47-10.058 4.505-.814 9.025-1.105 13.584-.983.232.004.494-.02.688.077 2.013.989 2.061 2.996 2.28 4.794.174 1.444-.553 2.501-2.1 2.995a17.58 17.58 0 01-4.457.81c-8.492.431-16.31 3.19-23.89 6.79-3.206 1.523-6.392 3.074-9.437 4.906-1.208.727-2.221 1.653-3.225 2.622-1.625 1.57-2.871 1.42-4.127-.46-.922-1.377-2.066-2.516-3.386-3.5-2.003-1.493-2.104-2.482-.567-4.498 1.077-1.415 2.304-2.477 4.234-2.24zM133.076 50.6c.577.64.456 1.361-.059 1.866-.645.63-1.343.097-1.867-.306-3.002-2.292-6.047-4.517-9.248-6.543-7.789-4.935-16.038-8.27-25.485-7.63-1.484.102-2.294-.63-2.614-2.011-.587-2.526-.5-5.095-.451-7.654.024-1.134.538-1.634 1.75-1.595 3.347.112 6.587.863 9.821 1.585 12.086 2.7 22.202 9.37 32.26 16.127 1.741 1.168 1.994 2.55.999 3.96-1.459 2.07-2.992 2.56-4.786 1.527-1.121-.441-2.163-1.033-3.206-1.692.985.795 2.328 1.105 2.886 2.365zM49.763 222c4.893-8.987 26.198-19.263 38.69-17.619-11.687 8.831-24.684 13.814-38.69 17.619zm60.218-158.43c6.601-.024 10.849 5.793 9.026 12.312-.272.975-.674.66-1.247.33-2.492-1.44-5.126-2.438-7.997-2.894-2.958-.47-5.805-.208-8.623.684-.785.247-1.202.276-1.067-.766.713-5.434 3.774-9.806 9.908-9.665zm-61.494 5.056c-5.034 9.86-18.904 21.914-26.683 23.271 3.206-7.47 16.853-22.132 26.683-23.271z"/><path d="M107.382 101.33c-2.236-1.72-4.341-1.1-5.495 1.503a21.346 21.346 0 00-1.683 6.034c-.257 2.143-.402 4.3.505 6.369.95 2.162 3.22 3.65 5.693 3.626 2.469-.024 3.948-1.454 4.899-3.567.683-1.513.921-3.117.965-5.226-.063-3.436-1.892-6.442-4.884-8.739zm-.994 8.555c-.403.514-.97.96-1.63.81-.654-.146-.441-.849-.514-1.343-.145-.994-.485-1.881-1.144-2.676-.66-.79-.257-1.25.645-1.415 1.658-.305 3.317 1.028 3.375 2.826.049.635-.296 1.25-.732 1.798zM47.73 24.575c-1.42.95-1.997 2.7-3.554 3.732-.538-1.546-.005-3.005.228-4.4.761-4.572 2.376-8.857 4.694-12.87 1.775-3.078 4.239-5.502 7.188-7.465.601-.402 1.115-.935 1.668-1.41 1.484-.155.785.867.81 1.498-.815 5.016-2.488 9.699-5.369 13.916-1.329 2.792-3.336 5.026-5.664 7zm85.326 80.09c.514-2.569.989-4.94.563-7.392-.485-2.816-1.504-5.366-3.337-7.557-.616-.741-.655-1.042.398-1.338 2.061-.576 4.151-.862 6.231-.49 5.258.931 7.736 6.55 5.025 11.227-1.935 3.335-5.136 4.658-8.88 5.55zM97.324 89.507c-2.721-3.359-8.046-4.275-11.732-2.02-2.294 1.4-3.414 3.896-2.793 6.228.79 2.966 3.09 4.92 6.285 4.94 2.934-.306 5.694-1.96 8.065-4.295 1.513-1.493 1.513-3.2.175-4.853zm-3.86 4.92c-.34.495-.714.558-1.092.03-.344-.48-.785-.81-1.295-1.12-.514-.315-1.721-.03-1.44-1.071.238-.844 1.11-1.295 2.051-1.358.956-.092 1.644.422 1.979 1.178.325.737.306 1.6-.204 2.341zm4.51 108.659c-.549 2.264-1.61 4.334-3.206 6.2-4.06 4.74-9.22 7.925-14.695 10.693-.34.174-.737.601-1.096.237-.422-.421.054-.892.228-1.255 2.221-4.556 5.84-7.94 9.612-11.153 2.44-2.075 5.049-3.941 7.988-5.289.945-.431 1.144-.324 1.168.567zm-60.748-167.9c-1.387-7.557-2.158-14.736 2.852-21.294 2.924 5.38 1.411 17.266-2.852 21.294zm1.746 53.881c-.014.135.02.305-.044.344-5.16 3.582-10.203 7.392-16.566 8.676-1.188.238-3.094.693-3.404-.126-.447-1.183 1.246-1.982 2.216-2.734 4.864-3.761 10.252-6.2 16.503-6.388.442-.01.936-.194 1.295.228zm50.345 25.467c-1.421.126-3.06-.471-3.792-2.458-.854-2.307-.68-4.595.741-6.655.548-.795 1.509-.65 2.256-.325 2.953 1.27 5.063 3.461 6.46 6.326.528 1.09.126 1.871-1.004 2.36-1.315.567-2.682.713-4.661.752zm-6.125 87.82c-2.58.8-5.209 1.198-7.813 1.658-4.074.717-8.172 1.299-12.328 1.096-.466-.025-1.203.203-1.353-.432-.126-.538.5-.848.887-1.178 2.522-2.132 5.636-2.574 8.735-2.966 3.627-.461 7.197-.005 10.713.955.441.121.868.3 1.159.867z"/><path d="M54.54 18.366l1.348-.752c.732-.29 1.537-.731 1.392.708-1.455 2.424-2.949 4.828-4.355 7.276-1.237 2.152-3.492 2.491-5.52 3.233-.78.286-.707-.388-.581-.81a9.566 9.566 0 011.324-2.743c1.406-2.971 3.234-5.56 6.392-6.912zM32.6 72.087c-2.12 5.303-6.669 11.958-8.938 13.13-.868-5.152 3.492-11.962 8.938-13.13zm14.51 102.508c-.02.019-.039.034-.063.053a1.026 1.026 0 01-.31.126c-3.822-2.162-7.396-4.663-10.583-7.692 1.523.639 2.663 1.837 3.968 2.792 2.197 1.614 4.427 3.179 6.726 4.643.024.02.053.034.078.053.01-.019.01-.043.01-.067-.098-.054-.2-.102-.301-.151-3.012-2.045-5.927-4.222-8.667-6.626-.446-.392-.708-.901-1.038-1.367 3.279 2.565 6.557 5.124 9.84 7.688.219.189.495.373.34.548zM32.047 59.727c-1.247 2.036-3.133 3.504-4.71 5.264 1.13-2.244 2.256-4.479 3.968-6.35-.815 1.924-2.032 3.606-3.104 5.075 1.077-1.29 2.29-2.802 3.846-3.99z"/><path d="M54.54 18.366c-2.736 1.745-4.632 4.27-6.397 6.912-.02-.3-.136-.548-.412-.698 1.886-2.332 3.778-4.663 5.664-6.995-.116.99.543.839 1.145.78zM133.075 50.6c-1.328-.922-2.657-1.848-3.981-2.769 1.571.466 3.167.84 4.306 2.094-.111.224-.218.451-.325.674zM11.043 107.413l-4.287-4.207.097.043c.223.107.436.247.669.272 3.438.412 3.438.407 3.52 3.892zm28.007 56.092c-.112-.02-.233-.015-.335-.059-.79-.315-1.484-1.41-2.43-.552-.872.795-.28 1.808-.072 2.734-1.164-1.013-1.096-2.293-.073-3.112 1.15-.921 2.226-.209 2.91.989zM58.764 3.664c-.165-.557.18-1.386-.81-1.497.407-.597.82-1.198 1.479-2.167-.063 1.522-.146 2.622-.67 3.664zm-1.489 14.653c.029-1.207-.95-.431-1.392-.707.446-1.11 1.26-.834 1.862-.315.48.421.257.94-.47 1.022zM35.47 166.461l-2.4-1.527c1.28-.242 2.051.311 2.4 1.527zm87.441 8.289c.514-.509 1.134-.776 2.066-.849-.417.621-.738 1.076-1.407 1.149a48.005 48.005 0 01-.659-.3zm-75.985-.179c.01-.02.01-.044.01-.068-.005-.145-.146-.305-.166-.456 1.533.558 2.75 1.605 3.997 2.632-1.513-.276-2.867-.877-4.03-1.905.116-.063.174-.13.189-.203z"/></g><defs><clipPath id="clip0"><path fill="#fff" d="M0 0h171v222H0z"/></clipPath></defs></svg>