<svg width="33" height="32" viewBox="0 0 33 32" fill="none" xmlns="http://www.w3.org/2000/svg">
<g clip-path="url(#clip0)">
<path d="M16.5 32C25.3366 32 32.5 24.8366 32.5 16C32.5 7.16344 25.3366 0 16.5 0C7.66344 0 0.5 7.16344 0.5 16C0.5 24.8366 7.66344 32 16.5 32Z" fill="#039BE5"/>
<path d="M7.82132 15.6531L23.248 9.70512C23.964 9.44645 24.5893 9.87979 24.3573 10.9625L24.3587 10.9611L21.732 23.3358C21.5373 24.2131 21.016 24.4265 20.2867 24.0131L16.2867 21.0651L14.3573 22.9238C14.144 23.1371 13.964 23.3171 13.5507 23.3171L13.8347 19.2465L21.248 12.5491C21.5707 12.2651 21.176 12.1051 20.7507 12.3878L11.5893 18.1558L7.63998 16.9238C6.78265 16.6518 6.76398 16.0665 7.82132 15.6531Z" fill="white"/>
</g>
<defs>
<clipPath id="clip0">
<rect width="32" height="32" fill="white" transform="translate(0.5)"/>
</clipPath>
</defs>
</svg>
