<svg width="33" height="32" viewBox="0 0 33 32" fill="none" xmlns="http://www.w3.org/2000/svg">
<g clip-path="url(#clip0)">
<rect x="3" y="2" width="29" height="27" fill="white"/>
<path d="M29.6053 0H3.39466C1.796 0 0.5 1.296 0.5 2.89466V29.1053C0.5 30.704 1.796 32 3.39466 32H29.6053C31.204 32 32.5 30.704 32.5 29.1053V2.89466C32.5 1.296 31.204 0 29.6053 0ZM10.4022 27.6309C10.4022 28.0962 10.025 28.4733 9.55977 28.4733H5.97393C5.50867 28.4733 5.13154 28.0962 5.13154 27.6309V12.5992C5.13154 12.1339 5.50867 11.7568 5.97393 11.7568H9.55977C10.025 11.7568 10.4022 12.1339 10.4022 12.5992V27.6309ZM7.76685 10.3399C5.88547 10.3399 4.36027 8.81466 4.36027 6.93328C4.36027 5.0519 5.88547 3.5267 7.76685 3.5267C9.64823 3.5267 11.1734 5.0519 11.1734 6.93328C11.1734 8.81466 9.64831 10.3399 7.76685 10.3399ZM29.1417 27.6988C29.1417 28.1265 28.7949 28.4733 28.3671 28.4733H24.5193C24.0915 28.4733 23.7447 28.1265 23.7447 27.6988V20.648C23.7447 19.5962 24.0533 16.039 20.996 16.039C18.6246 16.039 18.1436 18.4738 18.047 19.5665V27.6988C18.047 28.1265 17.7003 28.4733 17.2724 28.4733H13.5509C13.1232 28.4733 12.7764 28.1265 12.7764 27.6988V12.5314C12.7764 12.1036 13.1232 11.7568 13.5509 11.7568H17.2724C17.7002 11.7568 18.047 12.1036 18.047 12.5314V13.8428C18.9263 12.5231 20.2331 11.5046 23.0155 11.5046C29.1769 11.5046 29.1417 17.2609 29.1417 20.4237V27.6988Z" fill="#0077B7"/>
</g>
<defs>
<clipPath id="clip0">
<rect width="32" height="32" fill="white" transform="translate(0.5)"/>
</clipPath>
</defs>
</svg>
