<svg width="32" height="32" viewBox="0 0 32 32" fill="none" xmlns="http://www.w3.org/2000/svg">
<g clip-path="url(#clip0)">
<path d="M1.99998 2.17723C-0.514686 4.78923 -1.9148e-05 7.5639 -1.9148e-05 15.9932C-1.9148e-05 22.9932 -1.22135 30.0106 5.17065 31.6626C7.16665 32.1759 24.852 32.1759 26.8453 31.6599C29.5066 30.9732 31.672 28.8146 31.968 25.0506C32.0093 24.5252 32.0093 7.47057 31.9666 6.93457C31.652 2.92523 29.184 0.614566 25.932 0.146566C25.1866 0.0385658 25.0373 0.00656577 21.2133 -0.000100899C7.64931 0.00656577 4.67598 -0.597434 1.99998 2.17723Z" fill="url(#paint0_linear)"/>
<path d="M15.9974 4.18572C11.156 4.18572 6.5587 3.75505 4.8027 8.26172C4.07737 10.1231 4.1827 12.5404 4.1827 16.0017C4.1827 19.0391 4.08537 21.8937 4.8027 23.7404C6.5547 28.2497 11.1894 27.8177 15.9947 27.8177C20.6307 27.8177 25.4107 28.3004 27.188 23.7404C27.9147 21.8604 27.808 19.4791 27.808 16.0017C27.808 11.3857 28.0627 8.40572 25.824 6.16839C23.5574 3.90172 20.492 4.18572 15.992 4.18572H15.9974ZM14.9387 6.31505C25.0374 6.29905 26.3227 5.17639 25.6134 20.7724C25.3614 26.2884 21.1614 25.6831 15.9987 25.6831C6.58537 25.6831 6.3147 25.4137 6.3147 15.9964C6.3147 6.46972 7.06137 6.32039 14.9387 6.31239V6.31505ZM22.304 8.27639C21.5214 8.27639 20.8867 8.91105 20.8867 9.69372C20.8867 10.4764 21.5214 11.1111 22.304 11.1111C23.0867 11.1111 23.7214 10.4764 23.7214 9.69372C23.7214 8.91105 23.0867 8.27639 22.304 8.27639ZM15.9974 9.93372C12.6467 9.93372 9.9307 12.6511 9.9307 16.0017C9.9307 19.3524 12.6467 22.0684 15.9974 22.0684C19.348 22.0684 22.0627 19.3524 22.0627 16.0017C22.0627 12.6511 19.348 9.93372 15.9974 9.93372ZM15.9974 12.0631C21.204 12.0631 21.2107 19.9404 15.9974 19.9404C10.792 19.9404 10.784 12.0631 15.9974 12.0631Z" fill="white"/>
</g>
<defs>
<linearGradient id="paint0_linear" x1="2.06134" y1="29.956" x2="31.802" y2="4.21587" gradientUnits="userSpaceOnUse">
<stop stop-color="#FFDD55"/>
<stop offset="0.5" stop-color="#FF543E"/>
<stop offset="1" stop-color="#C837AB"/>
</linearGradient>
<clipPath id="clip0">
<rect width="32" height="32" fill="white"/>
</clipPath>
</defs>
</svg>
