<svg width="32" height="32" viewBox="0 0 32 32" fill="none" xmlns="http://www.w3.org/2000/svg">
<rect width="32" height="32" rx="4" fill="#FF6C6C"/>
<g clip-path="url(#clip0)">
<path d="M19.4925 14.4824H13.2703C13.0925 14.4824 12.8259 14.6505 12.8259 14.9026V16.5834C12.8259 16.8355 13.0036 17.0036 13.2703 17.0036H17.0925C16.737 18.8525 15.0481 20.1131 13.0925 19.945C11.0481 19.945 9.27031 18.6004 8.64809 16.7515C8.02587 14.9026 8.91476 12.8856 10.6036 11.7931C12.2925 10.7006 14.6036 10.8687 16.1148 12.1293C16.2925 12.2974 16.5592 12.2974 16.737 12.1293L18.0703 10.9527C18.1592 10.9527 18.2481 10.8687 18.2481 10.7006C18.2481 10.5325 18.1592 10.4485 18.0703 10.3644C15.6703 8.26342 12.0259 7.92726 9.27031 9.60807C6.51476 11.2048 5.18143 14.3984 6.07031 17.4238C6.9592 20.4493 9.80365 22.4663 13.0925 22.4663C18.2481 22.4663 20.0259 18.9366 20.0259 15.5749C20.0259 15.3228 20.0259 15.1547 20.0259 14.9026C20.0259 14.6505 19.7592 14.4824 19.4925 14.4824Z" fill="white"/>
<path d="M26.6922 14.4826H25.3589V13.222C25.3589 12.9698 25.1811 12.8018 24.9144 12.8018H23.1367C22.87 12.8018 22.6922 12.9698 22.6922 13.222V14.4826H21.3589C21.0922 14.4826 20.9144 14.6506 20.9144 14.9028V16.5836C20.9144 16.8357 21.0922 17.0038 21.3589 17.0038H22.6922V18.2644C22.6922 18.5165 22.87 18.6846 23.1367 18.6846H24.9144C25.1811 18.6846 25.3589 18.5165 25.3589 18.2644V17.0038H26.6922C26.9589 17.0038 27.1367 16.8357 27.1367 16.5836V14.9028C27.1367 14.6506 26.9589 14.4826 26.6922 14.4826Z" fill="white"/>
</g>
<defs>
<clipPath id="clip0">
<rect width="21.3333" height="13.8667" fill="white" transform="translate(5.80322 8.6001)"/>
</clipPath>
</defs>
</svg>
