<svg width="33" height="32" viewBox="0 0 33 32" fill="none" xmlns="http://www.w3.org/2000/svg">
<rect x="0.5" width="32" height="32" rx="4" fill="#FC0000"/>
<g clip-path="url(#clip0)">
<path d="M11.2733 9H22.7222C24.2867 9 25.5667 10.3553 25.5667 11.9365V18.7882C25.5667 20.4447 24.2867 21.7247 22.7933 21.7247H11.2733C9.78 21.8 8.5 20.4447 8.5 18.8635V11.9365C8.5 10.3553 9.78 9 11.2733 9ZM15.4689 18.7129L20.3044 15.4C20.3756 15.3247 20.4467 15.2494 20.4467 15.0988C20.4467 14.9482 20.3756 14.8729 20.3044 14.7976L15.4689 11.56C15.3267 11.4847 15.2556 11.4847 15.1133 11.56C14.9711 11.56 14.9 11.7106 14.9 11.8612V18.4118C14.9 18.5624 14.9711 18.7129 15.1133 18.7129C15.1844 18.7882 15.3267 18.7882 15.4689 18.7129Z" fill="white"/>
</g>
<defs>
<clipPath id="clip0">
<rect width="17.0667" height="12.8" fill="white" transform="translate(8.5 9)"/>
</clipPath>
</defs>
</svg>
