<svg width="32" height="32" viewBox="0 0 32 32" fill="none" xmlns="http://www.w3.org/2000/svg">
<g clip-path="url(#clip0)">
<path d="M21.6307 2.25881C21.0507 1.98814 21.4681 1.85481 21.3334 24.7801L31.12 29.6681C31.604 29.9108 32 29.6681 32 29.1175C31.9427 6.33614 32.128 7.49081 31.8454 7.36548L21.6307 2.25881Z" fill="#2FFC8D"/>
<path d="M10.6667 19.453L21.1574 2.40237C21.5041 1.86371 21.6467 2.43704 31.7694 7.33437C32.2281 7.58237 32.1174 7.02504 21.3334 24.7797L10.6667 19.453Z" fill="#03E370"/>
<path d="M0.693274 3.24963L10.6666 19.4536L21.3333 24.7923C9.98394 6.39763 10.7773 7.52029 10.5453 7.38829C3.91727 4.30296 -0.565393 1.19896 0.693274 3.24963Z" fill="#10C767"/>
<path d="M10.6667 29.1292C10.6667 29.6692 10.2707 29.9212 9.78668 29.6799L0.594684 25.0785C0.264017 24.9132 1.71885e-05 24.4839 1.71885e-05 24.1199C0.250684 3.33052 -0.549316 1.83985 0.594684 2.41185L10.5347 7.38785C10.7894 7.53319 10.608 6.24519 10.6667 29.1292Z" fill="#00AB6C"/>
</g>
<defs>
<clipPath id="clip0">
<rect width="32" height="32" fill="white"/>
</clipPath>
</defs>
</svg>
